<mxfile host="65bd71144e">
    <diagram id="oLCSSLlmixBNOmqJw71E" name="第 1 页">
        <mxGraphModel dx="968" dy="558" grid="1" gridSize="10" guides="1" tooltips="1" connect="1" arrows="1" fold="1" page="1" pageScale="1" pageWidth="827" pageHeight="1169" math="0" shadow="0">
            <root>
                <mxCell id="0"/>
                <mxCell id="1" parent="0"/>
                <mxCell id="4" style="edgeStyle=none;html=1;exitX=1;exitY=0.5;exitDx=0;exitDy=0;entryX=0;entryY=0.5;entryDx=0;entryDy=0;sketch=1;" edge="1" parent="1" source="2" target="5">
                    <mxGeometry relative="1" as="geometry">
                        <mxPoint x="190" y="55" as="targetPoint"/>
                    </mxGeometry>
                </mxCell>
                <mxCell id="10" style="edgeStyle=none;sketch=1;html=1;exitX=1;exitY=0.5;exitDx=0;exitDy=0;entryX=0;entryY=0.5;entryDx=0;entryDy=0;" edge="1" parent="1" source="2" target="8">
                    <mxGeometry relative="1" as="geometry"/>
                </mxCell>
                <mxCell id="2" value="匿名内部类" style="rounded=0;whiteSpace=wrap;html=1;fillColor=#ffe6cc;strokeColor=#d79b00;comic=1;" vertex="1" parent="1">
                    <mxGeometry x="40" y="120" width="80" height="32.62" as="geometry"/>
                </mxCell>
                <mxCell id="7" style="edgeStyle=none;sketch=1;html=1;exitX=1;exitY=0.5;exitDx=0;exitDy=0;entryX=0;entryY=0.5;entryDx=0;entryDy=0;" edge="1" parent="1" source="5" target="6">
                    <mxGeometry relative="1" as="geometry"/>
                </mxCell>
                <mxCell id="5" value="匿名内部类是什么" style="rounded=0;whiteSpace=wrap;html=1;fillColor=#b0e3e6;strokeColor=#0e8088;comic=1;" vertex="1" parent="1">
                    <mxGeometry x="180" y="38.69" width="70" height="32.62" as="geometry"/>
                </mxCell>
                <mxCell id="18" value="语法&lt;br&gt;格式" style="edgeStyle=none;sketch=1;html=1;exitX=1;exitY=0.5;exitDx=0;exitDy=0;entryX=0;entryY=0.5;entryDx=0;entryDy=0;fontSize=11;" edge="1" parent="1" source="6" target="17">
                    <mxGeometry relative="1" as="geometry"/>
                </mxCell>
                <mxCell id="6" value="&lt;div style=&quot;text-align: left&quot;&gt;&lt;span&gt;满足以下特点：&lt;/span&gt;&lt;/div&gt;&lt;div style=&quot;text-align: left&quot;&gt;① 在一个类的&lt;b&gt;方法内部定义&lt;/b&gt;&lt;/div&gt;&lt;div style=&quot;text-align: left&quot;&gt;② &lt;b&gt;同时创建对应实例&lt;/b&gt;&lt;/div&gt;" style="rounded=0;whiteSpace=wrap;html=1;fillColor=#ffe6cc;strokeColor=#d79b00;comic=1;sketch=1;" vertex="1" parent="1">
                    <mxGeometry x="310" y="30" width="160" height="50" as="geometry"/>
                </mxCell>
                <mxCell id="12" style="edgeStyle=none;sketch=1;html=1;exitX=1;exitY=0.5;exitDx=0;exitDy=0;entryX=0;entryY=0.5;entryDx=0;entryDy=0;fontSize=11;" edge="1" parent="1" source="8" target="11">
                    <mxGeometry relative="1" as="geometry"/>
                </mxCell>
                <mxCell id="8" value="案例" style="rounded=0;whiteSpace=wrap;html=1;fillColor=#dae8fc;strokeColor=#6c8ebf;comic=1;" vertex="1" parent="1">
                    <mxGeometry x="180" y="193.69" width="70" height="32.62" as="geometry"/>
                </mxCell>
                <mxCell id="15" value="编译后得到&lt;br&gt;TestAnonymousInnerClass$1.class" style="edgeStyle=none;sketch=1;html=1;exitX=0.5;exitY=1;exitDx=0;exitDy=0;entryX=0.5;entryY=0;entryDx=0;entryDy=0;fontSize=11;" edge="1" parent="1" source="11" target="14">
                    <mxGeometry relative="1" as="geometry"/>
                </mxCell>
                <mxCell id="11" value="&lt;pre style=&quot;background-color: rgb(255 , 255 , 255) ; color: rgb(8 , 8 , 8) ; font-family: &amp;#34;consolas&amp;#34; , monospace ; font-size: 11px&quot;&gt;&lt;span style=&quot;color: #0033b3&quot;&gt;public class &lt;/span&gt;&lt;span style=&quot;color: #066555&quot;&gt;TestAnonymousInnerClass &lt;/span&gt;{&lt;br&gt;&lt;br&gt;    &lt;span style=&quot;color: #0033b3&quot;&gt;public void &lt;/span&gt;&lt;span style=&quot;color: #795e26&quot;&gt;hello&lt;/span&gt;() {&lt;br&gt;        &lt;span style=&quot;color: #066555&quot;&gt;System&lt;/span&gt;.&lt;span style=&quot;color: #871094 ; font-style: italic&quot;&gt;out&lt;/span&gt;.&lt;span style=&quot;color: #795e26&quot;&gt;println&lt;/span&gt;(&lt;span style=&quot;color: #067d17 ; font-weight: bold&quot;&gt;&quot;hello&quot;&lt;/span&gt;);&lt;br&gt;    }&lt;br&gt;&lt;br&gt;    &lt;span style=&quot;color: #795e26&quot;&gt;TestAnonymousInnerClass&lt;/span&gt;() {&lt;br&gt;        &lt;span style=&quot;color: #066555&quot;&gt;Date &lt;/span&gt;&lt;span style=&quot;color: #000000&quot;&gt;date &lt;/span&gt;= &lt;span style=&quot;color: #0033b3&quot;&gt;new &lt;/span&gt;&lt;span style=&quot;color: #795e26&quot;&gt;Date&lt;/span&gt;();&lt;br&gt;        &lt;span style=&quot;color: #6c00d5&quot;&gt;Comparator&lt;/span&gt;&amp;lt;&lt;span style=&quot;color: #066555&quot;&gt;Integer&lt;/span&gt;&amp;gt; &lt;span style=&quot;color: #000000&quot;&gt;comparator &lt;/span&gt;= &lt;span style=&quot;color: #0033b3&quot;&gt;new &lt;/span&gt;&lt;span style=&quot;color: #066555&quot;&gt;Comparator&lt;/span&gt;&amp;lt;&lt;span style=&quot;color: #066555&quot;&gt;Integer&lt;/span&gt;&amp;gt;() {&lt;br&gt;            &lt;span style=&quot;color: #9e880d&quot;&gt;@Override&lt;br&gt;&lt;/span&gt;&lt;span style=&quot;color: #9e880d&quot;&gt;            &lt;/span&gt;&lt;span style=&quot;color: #0033b3&quot;&gt;public int &lt;/span&gt;&lt;span style=&quot;color: #795e26&quot;&gt;compare&lt;/span&gt;(&lt;span style=&quot;color: #066555&quot;&gt;Integer &lt;/span&gt;o1, &lt;span style=&quot;color: #066555&quot;&gt;Integer &lt;/span&gt;o2) {&lt;br&gt;                &lt;span style=&quot;color: #066555&quot;&gt;System&lt;/span&gt;.&lt;span style=&quot;color: #871094 ; font-style: italic&quot;&gt;out&lt;/span&gt;.&lt;span style=&quot;color: #795e26&quot;&gt;println&lt;/span&gt;(&lt;span style=&quot;color: #851691&quot;&gt;date&lt;/span&gt;);&lt;br&gt;                &lt;span style=&quot;color: #795e26&quot;&gt;hello&lt;/span&gt;();&lt;br&gt;                &lt;span style=&quot;color: #0033b3&quot;&gt;return &lt;/span&gt;&lt;span style=&quot;color: #1750eb&quot;&gt;0&lt;/span&gt;;&lt;br&gt;            }&lt;br&gt;        };&lt;br&gt;    }&lt;br&gt;}&lt;/pre&gt;" style="rounded=0;whiteSpace=wrap;html=1;fillColor=#ffe6cc;strokeColor=#d79b00;comic=1;align=left;" vertex="1" parent="1">
                    <mxGeometry x="310" y="90" width="420" height="240" as="geometry"/>
                </mxCell>
                <mxCell id="14" value="" style="shape=image;imageAspect=0;aspect=fixed;verticalLabelPosition=bottom;verticalAlign=top;sketch=1;fontSize=11;image=https://codereaper-image-bed.oss-cn-shenzhen.aliyuncs.com/img/image-20220812162412567.png;imageBorder=default;" vertex="1" parent="1">
                    <mxGeometry x="316.27" y="390" width="407.45" height="181" as="geometry"/>
                </mxCell>
                <mxCell id="16" value="&lt;div style=&quot;text-align: left&quot;&gt;特点：&lt;/div&gt;&lt;div style=&quot;text-align: left&quot;&gt;① 类名为：{定义的函数所属类}${分配的编号}&lt;/div&gt;&lt;div style=&quot;text-align: left&quot;&gt;② 继承或实现定义类位置new关键字跟的类或接口&lt;/div&gt;&lt;div style=&quot;text-align: left&quot;&gt;③ 根据需要可以获得：&lt;/div&gt;&lt;div style=&quot;text-align: left&quot;&gt;&amp;nbsp; 1) 定义函数所属类实例的引用【this$0】&lt;/div&gt;&lt;div style=&quot;text-align: left&quot;&gt;&amp;nbsp; 2) 函数内传递到匿名类的final属性【如这里的date】&lt;/div&gt;" style="rounded=0;whiteSpace=wrap;html=1;fillColor=#ffe6cc;strokeColor=#d79b00;comic=1;sketch=1;" vertex="1" parent="1">
                    <mxGeometry x="20" y="390" width="290" height="100" as="geometry"/>
                </mxCell>
                <mxCell id="17" value="&lt;div style=&quot;text-align: left&quot;&gt;new 继承类类名/实现接口接口名 {&lt;/div&gt;&lt;div style=&quot;text-align: left&quot;&gt;&amp;nbsp; &amp;nbsp; 重写或实现方法&lt;/div&gt;&lt;div style=&quot;text-align: left&quot;&gt;}&lt;/div&gt;" style="rounded=0;whiteSpace=wrap;html=1;fillColor=#d5e8d4;strokeColor=#82b366;comic=1;sketch=1;" vertex="1" parent="1">
                    <mxGeometry x="530" y="30" width="190" height="50" as="geometry"/>
                </mxCell>
                <mxCell id="21" style="edgeStyle=none;sketch=1;html=1;exitX=1;exitY=0.5;exitDx=0;exitDy=0;entryX=0;entryY=0.5;entryDx=0;entryDy=0;fontSize=11;" edge="1" parent="1" source="19" target="20">
                    <mxGeometry relative="1" as="geometry"/>
                </mxCell>
                <mxCell id="25" style="edgeStyle=none;sketch=1;html=1;exitX=1;exitY=0.5;exitDx=0;exitDy=0;entryX=0;entryY=0.5;entryDx=0;entryDy=0;fontSize=11;" edge="1" parent="1" source="19" target="24">
                    <mxGeometry relative="1" as="geometry"/>
                </mxCell>
                <mxCell id="19" value="lambda表达式" style="rounded=0;whiteSpace=wrap;html=1;fillColor=#ffe6cc;strokeColor=#d79b00;comic=1;" vertex="1" parent="1">
                    <mxGeometry x="40" y="678.69" width="90" height="32.62" as="geometry"/>
                </mxCell>
                <mxCell id="23" style="edgeStyle=none;sketch=1;html=1;exitX=1;exitY=0.5;exitDx=0;exitDy=0;entryX=0;entryY=0.5;entryDx=0;entryDy=0;fontSize=11;" edge="1" parent="1" source="20" target="22">
                    <mxGeometry relative="1" as="geometry"/>
                </mxCell>
                <mxCell id="20" value="lambda表达式是什么" style="rounded=0;whiteSpace=wrap;html=1;fillColor=#b0e3e6;strokeColor=#0e8088;comic=1;" vertex="1" parent="1">
                    <mxGeometry x="190" y="610" width="80" height="40" as="geometry"/>
                </mxCell>
                <mxCell id="22" value="&lt;div style=&quot;text-align: left&quot;&gt;可以理解为满足特定条件的匿名内部类的简化写法。&lt;/div&gt;&lt;div style=&quot;text-align: left&quot;&gt;条件：&lt;/div&gt;&lt;div style=&quot;text-align: left&quot;&gt;① 定义的&lt;b&gt;匿名内部类实现接口&lt;/b&gt;而不是继承类&lt;/div&gt;&lt;div style=&quot;text-align: left&quot;&gt;② 接口&lt;b&gt;只有一个要实现的方法&lt;/b&gt;&lt;/div&gt;" style="rounded=0;whiteSpace=wrap;html=1;fillColor=#ffe6cc;strokeColor=#d79b00;comic=1;sketch=1;" vertex="1" parent="1">
                    <mxGeometry x="316.27" y="592.5" width="290" height="75" as="geometry"/>
                </mxCell>
                <mxCell id="27" style="edgeStyle=none;sketch=1;html=1;exitX=1;exitY=0.5;exitDx=0;exitDy=0;entryX=0;entryY=0.5;entryDx=0;entryDy=0;fontSize=11;" edge="1" parent="1" source="24" target="26">
                    <mxGeometry relative="1" as="geometry"/>
                </mxCell>
                <mxCell id="24" value="上面案例使用lambda表达式简化" style="rounded=0;whiteSpace=wrap;html=1;fillColor=#dae8fc;strokeColor=#6c8ebf;comic=1;" vertex="1" parent="1">
                    <mxGeometry x="190" y="760" width="110" height="40" as="geometry"/>
                </mxCell>
                <mxCell id="26" value="&lt;pre style=&quot;background-color: rgb(255 , 255 , 255) ; color: rgb(8 , 8 , 8) ; font-family: &amp;#34;consolas&amp;#34; , monospace ; font-size: 11px&quot;&gt;&lt;pre style=&quot;font-family: &amp;#34;consolas&amp;#34; , monospace&quot;&gt;&lt;span style=&quot;color: #0033b3&quot;&gt;public class &lt;/span&gt;&lt;span style=&quot;color: #066555&quot;&gt;TestAnonymousInnerClass &lt;/span&gt;{&lt;br&gt;&lt;br&gt;    &lt;span style=&quot;color: #0033b3&quot;&gt;public void &lt;/span&gt;&lt;span style=&quot;color: #795e26&quot;&gt;hello&lt;/span&gt;() {&lt;br&gt;        &lt;span style=&quot;color: #066555&quot;&gt;System&lt;/span&gt;.&lt;span style=&quot;color: #871094 ; font-style: italic&quot;&gt;out&lt;/span&gt;.&lt;span style=&quot;color: #795e26&quot;&gt;println&lt;/span&gt;(&lt;span style=&quot;color: #067d17 ; font-weight: bold&quot;&gt;&quot;hello&quot;&lt;/span&gt;);&lt;br&gt;    }&lt;br&gt;&lt;br&gt;    &lt;span style=&quot;color: #795e26&quot;&gt;TestAnonymousInnerClass&lt;/span&gt;() {&lt;br&gt;        &lt;span style=&quot;color: #066555&quot;&gt;Date &lt;/span&gt;&lt;span style=&quot;color: #000000&quot;&gt;date &lt;/span&gt;= &lt;span style=&quot;color: #0033b3&quot;&gt;new &lt;/span&gt;&lt;span style=&quot;color: #795e26&quot;&gt;Date&lt;/span&gt;();&lt;br&gt;        &lt;span style=&quot;color: #6c00d5&quot;&gt;Comparator&lt;/span&gt;&amp;lt;&lt;span style=&quot;color: #066555&quot;&gt;Integer&lt;/span&gt;&amp;gt; &lt;span style=&quot;color: #000000&quot;&gt;comparator &lt;/span&gt;= (o1, o2) -&amp;gt; {&lt;br&gt;            &lt;span style=&quot;color: #066555&quot;&gt;System&lt;/span&gt;.&lt;span style=&quot;color: #871094 ; font-style: italic&quot;&gt;out&lt;/span&gt;.&lt;span style=&quot;color: #795e26&quot;&gt;println&lt;/span&gt;(&lt;span style=&quot;color: #851691&quot;&gt;date&lt;/span&gt;);&lt;br&gt;            &lt;span style=&quot;color: #795e26&quot;&gt;hello&lt;/span&gt;();&lt;br&gt;            &lt;span style=&quot;color: #0033b3&quot;&gt;return &lt;/span&gt;&lt;span style=&quot;color: #1750eb&quot;&gt;0&lt;/span&gt;;&lt;br&gt;        };&lt;br&gt;    }&lt;br&gt;}&lt;/pre&gt;&lt;/pre&gt;" style="rounded=0;whiteSpace=wrap;html=1;fillColor=#ffe6cc;strokeColor=#d79b00;comic=1;align=left;" vertex="1" parent="1">
                    <mxGeometry x="340" y="678.69" width="330" height="202.62" as="geometry"/>
                </mxCell>
            </root>
        </mxGraphModel>
    </diagram>
</mxfile>